<?xml version="1.0" standalone="no"?>
<!DOCTYPE svg PUBLIC "-//W3C//DTD SVG 20010904//EN"
 "http://www.w3.org/TR/2001/REC-SVG-20010904/DTD/svg10.dtd">
<svg version="1.0" xmlns="http://www.w3.org/2000/svg"
 width="32.000000pt" height="32.000000pt" viewBox="0 0 32.000000 32.000000"
 preserveAspectRatio="xMidYMid meet">

<g transform="translate(0.000000,32.000000) scale(0.100000,-0.100000)"
fill="#000000" stroke="none">
<path d="M142 153 c3 -24 8 -28 33 -28 23 0 31 5 33 23 2 12 -1 22 -7 22 -6 0
-11 -9 -11 -20 0 -11 -7 -20 -15 -20 -9 0 -15 9 -15 25 0 14 -5 25 -11 25 -6
0 -9 -12 -7 -27z"/>
<path d="M220 149 c0 -17 4 -28 10 -24 6 3 10 15 10 25 0 10 6 21 13 23 6 3 2
6 -10 6 -19 1 -23 -4 -23 -30z"/>
<path d="M266 155 c-3 -8 -1 -15 4 -15 13 0 22 18 11 24 -5 3 -11 -1 -15 -9z"/>
</g>
</svg>
